<svg xmlns="http://www.w3.org/2000/svg" width="24" height="24" fill="none" data-creator="OpuDoc" data-license="ISC" data-repo="https://github.com/OpuDoc/opicon" data-website="https://opicon.net" viewBox="0 0 24 24"><g stroke="#fff" stroke-linecap="round" stroke-linejoin="round" stroke-width="1.5" clip-path="url(#a)"><path d="M9 22h6c5 0 7-2 7-7V9c0-5-2-7-7-7H9C4 2 2 4 2 9v6c0 5 2 7 7 7"/><path stroke-miterlimit="10" d="M7 8.25c1 1 2.63 1 3.64 0m2.72 0c1 1 2.63 1 3.64 0M8.4 13h7.2c.5 0 .9.4.9.9a4.5 4.5 0 1 1-9 0c0-.5.4-.9.9-.9" opacity=".34"/></g><defs><clipPath id="a"><path fill="#fff" d="M0 0h24v24H0z"/></clipPath></defs></svg>