<svg xmlns="http://www.w3.org/2000/svg" width="24" height="24" fill="none" data-creator="OpuDoc" data-license="ISC" data-repo="https://github.com/OpuDoc/opicon" data-website="https://opicon.net" viewBox="0 0 24 24"><g stroke="#fff" stroke-linecap="round" stroke-linejoin="round" stroke-width="1.5" clip-path="url(#a)"><path d="M2 16.44v2.22a3.33 3.33 0 0 0 3.33 3.33h2.22M16.44 2h2.22a3.33 3.33 0 0 1 3.33 3.33v2.22M16.44 22h2.22a3.33 3.33 0 0 0 3.33-3.33v-2.22M2 7.55V5.33A3.33 3.33 0 0 1 5.33 2h2.22" opacity=".4"/><path d="m17.52 17.51-2.54-2.54m-3.54-8.53a5 5 0 1 1 0 10 5 5 0 0 1 0-10"/></g><defs><clipPath id="a"><path fill="#fff" d="M0 0h24v24H0z"/></clipPath></defs></svg>