<svg xmlns="http://www.w3.org/2000/svg" width="24" height="24" fill="none" data-creator="OpuDoc" data-license="ISC" data-repo="https://github.com/OpuDoc/opicon" data-website="https://opicon.net" viewBox="0 0 24 24"><g fill="#fff" clip-path="url(#a)"><path d="M12 22.16a4 4 0 0 1-1.62-.31l-7.24-3.22a2.9 2.9 0 0 1-1.63-2.51V7.89c0-1.02.7-2.1 1.63-2.51l7.24-3.22a4.5 4.5 0 0 1 3.25 0l7.24 3.22a2.9 2.9 0 0 1 1.63 2.51v8.23c0 1.02-.7 2.1-1.63 2.51l-7.24 3.22c-.47.2-1.05.31-1.63.31m0-18.82c-.38 0-.75.06-1.02.18L3.74 6.74c-.38.17-.74.72-.74 1.14v8.23c0 .42.36.97.74 1.14l7.24 3.22c.53.24 1.5.24 2.03 0l7.24-3.22c.38-.17.74-.72.74-1.14V7.88c0-.42-.36-.97-.74-1.14l-7.24-3.22A3 3 0 0 0 12 3.34"/><path d="M12 22.16a.76.76 0 0 1-.75-.75V10.92c0-.41.34-.75.75-.75s.75.34.75.75v10.49c0 .41-.34.75-.75.75"/><path d="M12 11.67a1 1 0 0 1-.3-.06L2.58 7.56a.75.75 0 0 1 .61-1.37l8.82 3.92 8.88-3.92c.38-.17.82 0 .99.38s0 .82-.38.99l-9.18 4.05a1 1 0 0 1-.32.06"/></g><defs><clipPath id="a"><path fill="#fff" d="M0 0h24v24H0z"/></clipPath></defs></svg>