<svg xmlns="http://www.w3.org/2000/svg" width="24" height="24" fill="none" data-creator="OpuDoc" data-license="ISC" data-repo="https://github.com/OpuDoc/opicon" data-website="https://opicon.net" viewBox="0 0 24 24"><g stroke="#fff" stroke-linecap="round" stroke-linejoin="round" stroke-width="1.5" clip-path="url(#a)"><path d="M12 7.56c4.91 0 8.89-1.24 8.89-2.78S16.91 2 12 2 3.11 3.24 3.11 4.78 7.09 7.56 12 7.56m-8.32 1.4-.56-4.04"/><path d="m20.88 4.92-1.92 13.85a3.3 3.3 0 0 1-2.58 2.8c-2.89.58-5.86.58-8.75 0a3.3 3.3 0 0 1-2.58-2.8l-.67-4.87"/><path d="M14.22 18.56q-2.23.21-4.44 0"/></g><defs><clipPath id="a"><path fill="#fff" d="M0 0h24v24H0z"/></clipPath></defs></svg>