<svg xmlns="http://www.w3.org/2000/svg" width="24" height="24" fill="none" data-creator="OpuDoc" data-license="ISC" data-repo="https://github.com/OpuDoc/opicon" data-website="https://opicon.net" viewBox="0 0 24 24"><g stroke="#fff" clip-path="url(#a)"><path stroke-width="1.5" d="m20.46 7.69-6-4.67a4 4 0 0 0-4.91 0l-6 4.67a4 4 0 0 0-1.54 3.16V18a4 4 0 0 0 4 4h12a4 4 0 0 0 4-4v-7.15a4 4 0 0 0-1.55-3.16Z"/><path stroke-linecap="round" stroke-linejoin="round" stroke-width="1.5" d="M14.82 15.21a3.9 3.9 0 0 0-5.64 0m-2.82-2.57A9 9 0 0 1 8.69 11a7.6 7.6 0 0 1 6.6 0q1.26.59 2.33 1.64"/><path stroke-linecap="round" stroke-linejoin="round" stroke-width="2" d="m11.91 17.72.02-.02"/></g><defs><clipPath id="a"><path fill="#fff" d="M0 0h24v24H0z"/></clipPath></defs></svg>