<svg xmlns="http://www.w3.org/2000/svg" width="24" height="24" fill="none" data-creator="OpuDoc" data-license="ISC" data-repo="https://github.com/OpuDoc/opicon" data-website="https://opicon.net" viewBox="0 0 24 24"><g fill="#fff" clip-path="url(#a)"><path d="M13.75 10.25a2.48 2.48 0 1 0-3.51 3.5 2.48 2.48 0 0 0 3.51-3.5"/><path d="M15.25 5.97a.76.76 0 0 0-1.02.3c-.2.36-.06.82.3 1.02a5.35 5.35 0 0 1 0 9.42.75.75 0 1 0 .72 1.32 6.85 6.85 0 0 0 0-12.06M9.46 16.71a5.35 5.35 0 0 1 0-9.42.75.75 0 0 0-.72-1.32 6.85 6.85 0 0 0 0 12.06q.17.09.36.09c.27 0 .53-.14.66-.39a.76.76 0 0 0-.3-1.02"/><path d="M18.14 3.2a.74.74 0 0 0-1.04.19.74.74 0 0 0 .19 1.04 9.24 9.24 0 0 1 0 15.14.75.75 0 0 0-.19 1.04.75.75 0 0 0 1.05.18 10.74 10.74 0 0 0 0-17.6zM2.76 12a9.2 9.2 0 0 1 3.96-7.57c.34-.24.42-.7.19-1.04a.75.75 0 0 0-1.04-.19 10.73 10.73 0 0 0-.01 17.6q.2.14.43.14.38 0 .62-.32a.74.74 0 0 0-.19-1.04 9.2 9.2 0 0 1-3.96-7.57z"/></g><defs><clipPath id="a"><path fill="#fff" d="M0 0h24v24H0z"/></clipPath></defs></svg>